<?xml version="1.0" encoding="utf-8"?>
<!-- Generator: Adobe Illustrator 27.7.0, SVG Export Plug-In . SVG Version: 6.00 Build 0)  -->
<svg version="1.1" id="Layer_1" xmlns="http://www.w3.org/2000/svg" xmlns:xlink="http://www.w3.org/1999/xlink" x="0px" y="0px"
	 viewBox="0 0 73 95.4" style="enable-background:new 0 0 73 95.4;" xml:space="preserve">
<path d="M43,85.5c-2.1,1.5-4.3,2.8-6.5,4c-2,1.1-4.9,3-7.2,2.6c-0.4-0.1-0.7-0.4-0.8-0.8c0-0.3,0.3-0.8,0.8-0.8
	c1.4-0.2,2.7-0.6,3.9-1.3c2.7-1.5,5.3-3,7.9-4.7c1.6-1.1,3.2-2.3,4.5-3.7c3-3.3,5.5-7,7.2-11.1c1.9-4.4,2.8-9.1,2.5-13.8
	c-0.2-2.7-0.6-5.2-1.2-7.8L53,43.3c-0.7-3-2.6-6.8-4.7-9.3c-2.2-2.6-5.3-4.3-8.6-4.9c-2-0.4-3.9-0.3-5.8,0.2
	c-4.4,1.1-7.6,3.6-9.4,7.8c-1.9,4.5-2,7.4-3.2,11.9c-1,3.8-2.8,7.2-5.4,10c-1.2,1.3-2.6,2.5-4.2,3.4c-1.7,0.9-3.6,1.5-5.6,1.7
	c-0.5,0.1-0.9-0.3-1-0.7c-0.1-0.4,0.2-0.9,0.7-1c3.7-0.8,5.9-1.8,8.5-4.6c2.1-2.2,3.6-4.8,4.6-7.8c0.5-1.5,0.8-3,1.2-4.5l0.7-3.3
	c0.5-2.4,1.3-4.6,2.3-6.8c1.5-3.1,3.9-5.5,7.1-6.9c2-0.9,4.1-1.4,6.3-1.6c2.2-0.1,4.3,0.3,6.4,1.1c2.5,0.9,4.6,2.4,6.4,4.3
	c2.9,3.1,4.8,7.7,5.7,11.7l1,4.5c2.2,9.5,1,18.2-4.1,26.5c-1,1.6-2.1,3.2-3.2,4.7C47.2,82.1,45.2,83.9,43,85.5L43,85.5z M60.9,59.9
	c0.3-4.7-0.2-9.5-1.2-14.1c-0.4-1.8-0.8-3.4-1.3-5.2c-1.1-3.8-3-7.3-5.5-10.4c-1.3-1.6-2.8-2.9-4.6-4c-2.8-1.7-5.9-2.8-9.1-3.2
	c-2-0.2-3.8,0-5.8,0.4c-4.2,0.8-7.9,2.7-10.9,5.7l-2.6,2.7c-1.2,1.2-2.2,2.4-3.1,3.8c-1.1,1.7-2,3.4-2.6,5.3L12.7,45
	c-0.4,1.3-0.9,2.4-1.5,3.6c-2.4,4.9-6,6-6.6,6.8c-0.2,0.3-0.1,0.8,0.1,1c0.2,0.2,0.7,0.4,1,0.2c1.9-0.9,3.6-2.2,4.9-3.8
	c4.8-5.6,4-13.2,9.6-18.8l3.1-3.1c6.1-6.1,15.2-7.9,22.8-3.7c2.3,1.3,4.3,3,5.9,5.2c3.2,4.3,4.4,8.2,5.5,13.4
	c0.6,2.9,1.1,5.8,1.3,8.7c0.1,2,0.2,3.9,0,5.9c-0.5,6-2.6,11.9-6,16.9l-3,4.4c-1,1.5-2.3,2.7-3.8,3.8c-2.8,2.1-5.7,3.9-8.8,5.5
	c-0.4,0.2-0.5,0.7-0.4,1c0.3,0.9,1.4,0.4,2,0.1c3.1-1.6,5.7-3.4,8.5-5.4c1.9-1.4,3.3-3,4.6-5l3.8-5.9C59,71.2,60.5,65.5,60.9,59.9
	L60.9,59.9z M24.2,82c1.8-0.4,3.5-0.9,5.1-1.6c7.4-3.3,13.1-9.5,16-17c0.9-2.5,1.6-5,2.1-7.6c0.7-3.9,0.8-6-0.1-9.9
	c-0.8-3.5-2.4-7.4-5.5-9.4c-1.9-1.3-4.2-1.8-6.5-1.2c-2.4,0.6-4.4,2.1-5.6,4.3c-1,1.7-1.5,3.6-1.8,5.5l-0.6,4.1
	c-0.8,5.8-3,8.7-6.4,13.2c-0.6,0.8-1.2,1.7-1.9,2.5c-1.5,1.6-4,3-6.1,3.8c-1.7,0.7-3.5,0.8-5.3,0.8c-0.5,0-0.9,0.4-0.9,0.8
	c0,0.4,0.3,0.8,0.8,0.9c2.1,0.2,4.3,0,6.3-0.9c2.1-0.9,4.1-2.1,5.9-3.6c1.1-0.9,1.7-2,2.5-3.1c3.6-4.6,6.3-8.2,7-14.3
	c0.2-1.7,0.4-3.3,0.7-5c0.6-3.3,2.1-6.4,5.6-7.3c2.2-0.6,4.5,0.1,6.1,1.7c1,1,1.7,2.1,2.3,3.3c1.5,3.2,2.2,6.8,1.9,10.4
	c-0.1,1.8-0.5,3.5-0.9,5.3c-0.5,2.3-1.3,4.6-2.3,6.8c-3,6.4-8.2,11.5-14.7,14.3c-2.7,1.1-5.5,1.7-8.4,1.9c-2.2,0.2-4.2,0-6.4-0.1
	c-0.4,0-0.7,0.1-0.9,0.4c-0.2,0.3-0.2,0.6,0,0.9c0.1,0.2,0.4,0.4,0.7,0.5c1.1,0.3,2.1,0.3,3.3,0.3C18.9,82.8,21.5,82.5,24.2,82
	L24.2,82z M8.8,67.4c3.4-0.5,6.6-2,9-4.5c3.4-3.5,6.5-8.5,7.4-13.4l1-5.2c0.5-2.6,1.3-5.3,2.9-7.5c1.9-2.6,5-4.2,8.3-4.1
	c3.4,0.1,6.5,1.9,8.4,4.6c1.9,2.6,3,5.5,3.6,8.6c0.3,1.5,0.6,2.8,1.2,4.2c1.3,3.4,1.2,7.4,0.7,11c-0.9,5.9-3.3,10.7-7.1,15.2
	c-0.4,0.5-0.4,1,0,1.4c0.4,0.3,0.9,0.3,1.3-0.1c1.2-1.3,2.2-2.8,3.2-4.4c1.5-2.4,2.7-4.9,3.4-7.6c1.5-5.2,2.1-11.2,0.1-16.4
	c-0.5-1.3-0.8-2.6-1.1-4c-0.7-3.4-2-6.6-4.1-9.3c-3.6-4.7-9.7-6.5-15.1-3.9c-2.5,1.2-4.4,3.2-5.6,5.7c-0.9,1.9-1.6,3.8-1.9,5.8
	l-0.7,3.7c-0.8,4.5-2.6,8.6-5.5,12.1c-1,1.3-2.1,2.5-3.4,3.5c-1.9,1.4-4.1,2.3-6.4,2.6l-1.9,0.3c-0.4,0.1-0.8,0.5-0.7,0.9
	C5.9,68,7.9,67.5,8.8,67.4L8.8,67.4z M67.4,45.8c-0.8-3.1-2.3-5.9-4.5-8.2c-1-1-1.8-2.1-2.5-3.3c-1.3-2.1-2.7-4.2-4.3-6.2
	c-1.5-1.8-3.2-3.4-5.2-4.6c-1.6-1-3.2-1.8-4.9-2.5c-2.9-1.2-6.1-1.9-9.2-1.8c-2,0.1-4,0.5-5.9,1c-2.9,0.7-5.5,1.9-7.9,3.6
	c-3.8,2.5-7.3,6.4-9.7,10.3c-1,1.7-1.9,3.3-2.6,5.1c-1.6,3.8-1.9,7-4.8,10.3c-0.7,0.9-2,1.8-1.1,2.6c0.3,0.3,0.8,0.3,1.2,0
	c1.9-1.7,3.4-3.8,4.3-6.3l1.4-3.9c1.8-5,4.4-9.4,8.2-13.1c2.3-2.3,4.9-4.2,7.8-5.5c3.1-1.4,6.5-2,9.9-2.2c3,0,5.8,0.7,8.6,2
	c3.7,1.8,6.3,3.4,8.9,6.6c1.3,1.7,2.5,3.4,3.6,5.3c1,1.7,2.2,3.1,3.5,4.6c2,2.2,3.2,4.9,3.8,7.8c0.4,1.9,0.7,3.8,0.7,5.8l0.1,6.2
	c0,0.5,0.4,0.9,0.9,0.9c0.4,0,0.9-0.3,0.9-0.8c0.2-2,0.1-4,0.1-6C68.3,50.8,68,48.3,67.4,45.8L67.4,45.8z M27.3,76.8
	c3.4-1.5,6.4-3.7,8.9-6.4c4.1-4.5,6.9-10.7,7.6-16.7c0.3-2.4,0.1-4.7-0.4-7.1c-0.5-2.3-1.7-5-3.6-6.5c-1.9-1.4-4.3-1.2-6,0.5
	c-1.7,1.7-2.1,4-2.3,6.4c-0.1,1.4-0.3,2.7-0.5,4.1c-0.9,5.4-3.6,9-7.3,12.9c-0.3,0.3-0.5,0.9-0.2,1.3c0.3,0.4,0.9,0.3,1.3,0
	c1.3-1.1,2.4-2.4,3.5-3.8c2-2.6,3.5-5.5,4.3-8.7c0.4-1.8,0.6-3.5,0.8-5.3c0.1-1.4,0.3-2.7,0.8-4c0.3-0.8,0.8-1.5,1.5-1.9
	c1.8-1.1,3.4,0.3,4.3,1.8c0.4,0.7,0.8,1.4,1,2.1c0.7,2.2,1.1,4.5,1,6.9c-0.2,3.3-1.1,6.5-2.5,9.6c-1.6,3.5-3.8,6.6-6.6,9.1
	c-3,2.7-6.7,4.7-10.6,5.5c-1.5,0.3-2.9,0.6-4.5,0.6c-2.1,0.1-4.2,0-6.3-0.3c-0.8-0.1-1.8-0.3-2,0.5c-0.1,0.3,0,0.7,0.2,0.9
	c0.3,0.2,0.6,0.3,1,0.4c1.8,0.3,3.6,0.4,5.4,0.4C20,79,23.8,78.3,27.3,76.8L27.3,76.8z M60.6,27.6c-2.3-2.8-4-5.1-7.2-7
	c-1.7-1.1-3.5-1.9-5.3-2.8c-3-1.5-6.1-2.4-9.4-2.7c-1.7-0.2-3.4,0-5.1,0.3c-3.1,0.5-6,1.3-8.8,2.7c-1.5,0.8-2.8,1.7-4.3,2.6
	c-3.2,2.1-6,4.7-8.2,7.7c-0.2,0.3-0.3,0.8,0,1.1c0.2,0.3,0.6,0.4,1,0.3c0.3-0.1,0.5-0.3,0.7-0.6c3-3.8,5.5-5.7,9.5-8.3
	c1.4-0.9,2.9-1.7,4.5-2.2c2.3-0.8,4.6-1.4,7.1-1.7c1.5-0.2,2.8-0.2,4.3,0c2.3,0.3,4.5,0.8,6.7,1.8c1.9,0.8,3.7,1.8,5.5,2.8
	c1.9,1.1,3.6,2.5,5.1,4.2c2.2,2.6,4.3,5.3,6.3,8c1.5,2,2.7,4.1,3.9,6.3c0.2,0.5,0.8,0.7,1.2,0.5c0.4-0.2,0.7-0.7,0.5-1.2
	c-1-2.3-2.4-4.4-3.8-6.4C63.4,31.2,62,29.4,60.6,27.6L60.6,27.6z M10.8,21.1c1.6-1.9,3.4-3.5,5.4-4.9c2.3-1.6,4.7-2.9,7.2-4.2
	c3.3-1.7,6.9-2.8,10.6-3.3c1.8-0.2,3.6,0,5.4,0.3c3.9,0.7,6,1,9.6,2.6c2.3,1.1,4.6,2.2,6.8,3.6c2.9,1.7,5.3,3.9,7.2,6.5
	c0.4,0.5,1,0.6,1.4,0.2c0.4-0.4,0.5-0.9,0.1-1.4c-2-2.8-4.6-5.1-7.6-6.9c-2.6-1.5-5.2-2.9-8-4.1C45.7,8,42.6,7.6,39.1,7
	c-1.8-0.3-3.5-0.5-5.3-0.2c-6.5,0.9-11.5,3.4-17,6.7c-2.6,1.6-5.6,3.9-7.4,6.4c-0.3,0.4-0.3,1,0.1,1.3C9.9,21.6,10.5,21.5,10.8,21.1
	L10.8,21.1z M25.5,73.2c3.9-1.6,6.9-4.1,9.4-7.5c2.2-2.9,3.8-6.2,4.8-9.7c0.9-3.4,0.8-6.9-0.4-10.1c-0.3-0.9-1.3-2.9-2.6-2.3
	c-0.5,0.3-0.6,0.9-0.2,1.4c0.6,0.8,1,1.6,1.3,2.5c1.1,3.8,0.5,7.7-1.1,11.4c-1,2.4-2.4,4.7-4,6.7c-2,2.4-4.4,4.4-7.3,5.7
	c-4.2,1.9-8.2,2.3-12.7,2L9,73c-0.5,0-1,0.2-1,0.7c-0.1,0.5,0.4,1,0.9,1c1.8,0.3,3.6,0.4,5.5,0.4C18.2,75.3,22,74.7,25.5,73.2
	L25.5,73.2z M32.3,83.3c2.9-1.5,5.6-3.3,8-5.6c4-3.9,7-8.1,8.7-13.5c0.9-2.9,1.4-6,1.6-9c0-0.5-0.3-0.9-0.8-1
	c-0.4,0-0.9,0.3-0.9,0.8c-0.6,5.3-1.6,10.4-4.5,15c-3.7,5.8-9.3,10.4-15.7,12.9c-2.6,1-5.3,1.4-8,1.6c-1.3,0.1-2.5,0-3.7,0
	c-0.5,0-0.8,0.3-0.9,0.7c-0.1,0.4,0.2,0.8,0.6,0.9c0.6,0.2,1.3,0.2,2,0.2c2.2,0.1,4.2-0.1,6.3-0.5C27.5,85.4,29.9,84.5,32.3,83.3
	L32.3,83.3z M60.3,70.6c-1.3,3.6-3.1,6.8-5.5,9.8c-0.3,0.3-0.5,0.7-0.4,1.1c0,0.3,0.4,0.5,0.6,0.6c0.3,0.1,0.6,0,0.9-0.3
	c0.4-0.4,0.8-0.8,1.2-1.3c1.9-2.4,3.5-5.1,4.6-8.1c1.1-2.8,1.9-5.7,2.4-8.6c0.5-2.5,0.6-5,0.6-7.6c-0.1-3.2-0.4-6.3-1.1-9.4
	c-0.4-1.9-1-3.7-1.9-5.4c-0.2-0.4-0.8-0.6-1.1-0.5c-0.4,0.2-0.6,0.7-0.5,1.1c0.6,1.5,1.2,3,1.6,4.7c1,4.7,1.4,10.9,0.7,15.6
	C62,65.2,61.3,68,60.3,70.6L60.3,70.6z M5.6,35c0.4,0.1,0.8-0.2,1-0.7c0.7-1.8,1.5-3.5,2.5-5.2c1.6-2.6,3.6-4.9,5.8-7
	c1.5-1.4,3.1-2.6,4.9-3.7c1.3-0.8,2.6-1.6,4-2.4c2.2-1.2,4.5-2,6.9-2.6c1.3-0.3,2.5-0.5,3.8-0.7c0.5-0.1,0.9-0.5,0.8-1
	c-0.1-0.4-0.5-0.8-1-0.8c-3.9,0.3-7.7,1.5-11.2,3.3c-2.1,1.1-4,2.3-6,3.6c-2.6,1.8-4.7,3.9-6.7,6.3C8.2,27,6.4,29.8,5.2,33
	c-0.2,0.4-0.4,0.7-0.4,1.2C4.8,34.6,5.2,35,5.6,35L5.6,35z M61.1,22.3c-2-2.3-4.3-4.3-7.1-5.8c-2.2-1.2-4.5-2.3-6.8-3.4
	c-2.8-1.3-5.7-2-8.8-2.1c-0.6,0-1,0.4-1,0.9c0,0.5,0.4,0.8,0.9,0.9c2.7,0.3,5.3,0.8,7.8,1.9c2.4,1.1,4.8,2.3,7.2,3.6
	c2.2,1.2,4.1,2.8,5.8,4.6c1.6,1.8,3.2,3.6,4.7,5.5c0.9,1.2,1.6,2.4,2.5,3.7c0.3,0.5,0.8,0.6,1.3,0.4c0.4-0.2,0.6-0.8,0.3-1.3
	c-1-1.9-2.2-3.6-3.6-5.2L61.1,22.3L61.1,22.3z M23.2,67.9c-1.6,0.8-3.2,1.4-4.9,1.9c-0.6,0.2-1.6,0.7-1.2,1.4
	c0.1,0.3,0.4,0.5,0.8,0.5c0.9-0.1,1.6-0.4,2.4-0.6c1.8-0.6,3.6-1.3,5.3-2.3c4.2-2.4,7.7-6.8,9.5-11.2c1.4-3.4,2-6.5,1.1-10.1
	c-0.1-0.6-0.7-0.8-1.2-0.6c-1.1,0.6-0.2,2.1-0.3,3.9c-0.1,2.4-0.7,4.7-1.7,6.9C31,61.8,27.5,65.9,23.2,67.9L23.2,67.9z M5.8,60.5
	c2.8-0.6,5.2-2.1,7.2-4.1c2.1-2.2,3.5-4.7,4.4-7.5c0.6-1.8,1-3.6,1.5-5.5c0.6-2.1,1.3-4,2.2-6c0.2-0.4,0.1-0.9-0.2-1
	c-1-0.6-1.6,0.9-2,1.6c-1.8,3.6-2.2,7.4-3.6,10.9c-1.7,4.6-4.8,8.2-9.5,9.8c-0.3,0.1-0.7,0.2-1,0.5c-0.2,0.3-0.2,0.7,0,1
	C5.1,60.4,5.5,60.6,5.8,60.5L5.8,60.5z M39.2,83.6c1.3-0.9,2.6-1.9,3.7-3c0.4-0.4,0.4-0.9,0.1-1.3c-0.3-0.3-0.9-0.4-1.3-0.1
	c-1.6,1.4-3.3,2.7-5.2,3.8c-2,1.2-3.9,2.4-6,3.2c-2.8,1-5.7,1.5-8.6,1.7c-0.6,0-1.1,0.6-0.9,1.1c0.1,0.4,0.6,0.6,1.1,0.7
	c1.7,0,3.2-0.2,4.8-0.5c2.3-0.4,4.4-1.1,6.4-2.1C35.3,86,37.3,84.8,39.2,83.6L39.2,83.6z M36.7,4.4c6.9,0.6,13.4,2.2,18.9,6.5
	c0.4,0.3,1,0.2,1.3-0.2c0.3-0.4,0.2-0.9-0.2-1.3c-0.7-0.6-1.5-1.2-2.3-1.7c-2.8-1.7-5.7-2.9-8.9-3.8c-2.2-0.6-6.6-1.5-8.8-1.4
	c-0.5,0-0.9,0.4-0.9,0.9C35.9,3.9,36.2,4.4,36.7,4.4L36.7,4.4z M17.8,11.2c1.9-1.4,3.9-2.8,6.1-3.8c3-1.4,6-2.2,9.2-2.7
	c0.6-0.1,0.8-0.7,0.8-1.1c-0.1-0.5-0.6-0.8-1.2-0.7c-2.2,0.3-4.3,0.8-6.5,1.6c-3.4,1.2-6.6,2.9-9.4,5.2c-0.4,0.4-0.6,0.8-0.3,1.3
	C16.7,11.2,17.4,11.5,17.8,11.2L17.8,11.2z M5,45.9c0.4,0.1,0.8,0,1.1-0.4c0.2-0.4,0.3-0.8,0.4-1.2c0.7-3,1.8-5.7,3.3-8.4
	c0.6-1.1,1.1-2.1,1.8-3.2c0.1-0.2,0.2-0.5,0-0.8c-0.2-0.3-0.5-0.5-0.9-0.5c-0.3,0-0.6,0.2-0.9,0.5c-0.9,1.3-1.5,2.6-2.3,4
	c-1.5,2.8-2.6,5.8-3.2,8.9C4.4,45.4,4.7,45.8,5,45.9L5,45.9z M61.5,77.8c-0.3,0.1-0.6,0.4-0.7,0.7c-2,3.3-4,5.1-7.2,7.2
	c-0.5,0.3-0.7,0.8-0.4,1.3c0.2,0.4,0.8,0.6,1.3,0.3c3.4-2.2,6-4.6,8-8.1c0.2-0.4,0.2-0.7,0-1C62.2,77.8,61.9,77.7,61.5,77.8
	L61.5,77.8z M66.7,62.3c-0.3,0.1-0.6,0.4-0.6,0.8c-0.3,2.2-0.8,4.4-1.4,6.5c-0.1,0.5,0.1,1,0.5,1.1c0.4,0.1,1,0,1.2-0.5
	c0.8-2.3,1.2-4.5,1.6-6.9c0-0.3,0-0.6-0.2-0.8C67.5,62.2,67.1,62.2,66.7,62.3L66.7,62.3z M50,87.6l-4,2.4c-0.4,0.2-0.6,0.8-0.4,1.2
	c0.3,0.4,0.8,0.5,1.3,0.3c1.4-0.7,2.8-1.5,4.1-2.4c0.4-0.3,0.4-0.8,0.2-1.2C51,87.6,50.5,87.4,50,87.6L50,87.6z M64.4,72.8
	c-0.4-0.1-0.8,0-1,0.3c-0.4,0.6-1.3,2.1-0.2,2.5c0.4,0.1,0.8,0,1.1-0.3c0.3-0.5,0.7-1.1,0.8-1.7C65.1,73.2,64.7,72.9,64.4,72.8
	L64.4,72.8z"/>
</svg>
