<?xml version="1.0" encoding="utf-8"?>
<!-- Generator: Adobe Illustrator 27.7.0, SVG Export Plug-In . SVG Version: 6.00 Build 0)  -->
<svg version="1.1" id="Layer_1" xmlns="http://www.w3.org/2000/svg" xmlns:xlink="http://www.w3.org/1999/xlink" x="0px" y="0px"
	 viewBox="0 0 70 70" style="enable-background:new 0 0 70 70;" xml:space="preserve">
<path fill="currentColor" d="M65.6,32.6l-9-15.6c-0.7-1.3-2.4-1.7-3.7-1l-4.4,2.6c-0.6,0.4-1.1,0.9-1.3,1.6c-0.2,0.7-0.1,1.4,0.3,2l0.5,0.8
	l-1.3,0.6c-0.6,0.3-1.3,0.4-2.1,0.3c-1.2-0.1-2.3-0.3-3.4-0.6c-1.4-0.3-2.8-0.5-4.4-0.7l0,0c-1.9-0.2-2.7-0.1-4.5,1.6L31,25.4
	c-4.4-0.5-7.5-1.7-9-2.4l0.5-0.9c0.4-0.6,0.5-1.3,0.3-2c-0.2-0.7-0.6-1.3-1.3-1.6L17.1,16c-1.3-0.7-2.9-0.3-3.7,1l-9,15.6
	c-0.7,1.3-0.3,2.9,1,3.7l4.4,2.6c0.4,0.2,0.9,0.4,1.3,0.4c0.9,0,1.8-0.5,2.3-1.3l0.4-0.6c0.7,1.4,1.8,2.9,2.9,3.8l-1,1.7
	c-0.9,1.6-0.4,3.6,1.2,4.5c0.5,0.3,1.1,0.4,1.6,0.4c0.4,0,0.8-0.1,1.1-0.2c0,0.1,0,0.2,0.1,0.3c0.2,0.8,0.8,1.5,1.5,2
	c0.5,0.3,1.1,0.4,1.6,0.4c0.4,0,0.8-0.1,1.1-0.2c0,0.1,0,0.2,0.1,0.3c0.2,0.8,0.8,1.5,1.5,2c0.5,0.3,1.1,0.4,1.6,0.4
	c0.7,0,1.4-0.2,2-0.7c0.3,0.7,0.7,1.3,1.4,1.6c0.5,0.3,1.1,0.4,1.6,0.4c0.3,0,0.6,0,0.9-0.1c0.8-0.2,1.5-0.8,2-1.5l0.1-0.2L38,54
	c0.5,0.3,1.1,0.4,1.6,0.4c0.3,0,0.6,0,0.9-0.1c0.8-0.2,1.5-0.8,2-1.5c0.3-0.6,0.5-1.3,0.4-1.9c0.6,0.2,1.1,0.2,1.7,0
	c0.8-0.2,1.5-0.8,2-1.5c0.3-0.6,0.5-1.3,0.4-1.9c1.4,0.4,2.9-0.2,3.7-1.5c0.3-0.6,0.5-1.3,0.4-1.9c0.6,0.2,1.1,0.2,1.7,0
	c0.8-0.2,1.5-0.8,2-1.5c0.4-0.8,0.5-1.6,0.3-2.5c-0.1-0.3-0.2-0.5-0.3-0.8c0.5-0.5,1-1.2,1.5-1.8l0.2,0.3c0.5,0.9,1.4,1.3,2.3,1.3
	c0.5,0,0.9-0.1,1.3-0.4l4.4-2.6c0.6-0.4,1.1-0.9,1.3-1.6C66,33.9,65.9,33.2,65.6,32.6L65.6,32.6z M12.2,37.1c-0.3,0.6-1,0.8-1.6,0.4
	l-4.4-2.6c-0.6-0.3-0.8-1-0.4-1.6l9-15.6c0.2-0.4,0.6-0.6,1-0.6c0.2,0,0.4,0.1,0.6,0.2l4.4,2.6c0.3,0.2,0.5,0.4,0.5,0.7
	c0.1,0.3,0,0.6-0.1,0.9L12.2,37.1z M17.7,45.9c-0.8-0.5-1.1-1.6-0.6-2.4l2.5-4.4c0.5-0.8,1.6-1.1,2.4-0.6c0.8,0.5,1.1,1.5,0.7,2.4
	l-2.5,4.4C19.6,46.1,18.5,46.4,17.7,45.9L17.7,45.9z M22,48.4c-0.4-0.2-0.7-0.6-0.8-1.1c-0.1-0.5-0.1-0.9,0.2-1.3l3.4-6
	c0.2-0.4,0.6-0.7,1.1-0.8c0.5-0.1,0.9-0.1,1.3,0.2c0.8,0.5,1.1,1.5,0.7,2.4l-3.5,6C23.9,48.6,22.9,48.9,22,48.4L22,48.4z M26.4,50.9
	c-0.4-0.2-0.7-0.6-0.8-1.1c-0.1-0.5-0.1-0.9,0.2-1.3l3.9-6.8c0.2-0.4,0.6-0.7,1.1-0.8c0.5-0.1,0.9-0.1,1.3,0.2
	c0.4,0.2,0.7,0.6,0.8,1.1c0.1,0.5,0.1,0.9-0.2,1.3l-3.9,6.8C28.3,51.1,27.2,51.4,26.4,50.9L26.4,50.9z M32.7,52.5
	c-0.5,0.1-0.9,0.1-1.3-0.2c-0.8-0.5-1.1-1.5-0.7-2.4l2.5-4.4c0.5-0.8,1.6-1.1,2.4-0.6c0.8,0.5,1.1,1.6,0.6,2.4l-2.5,4.4
	C33.5,52.1,33.1,52.4,32.7,52.5L32.7,52.5z M53.5,41.8c-0.2,0.4-0.6,0.7-1.1,0.8c-0.5,0.1-0.9,0.1-1.3-0.2L45,38.9
	c-0.4-0.2-0.8-0.1-1,0.3c-0.2,0.4-0.1,0.8,0.3,1l4.6,2.6c0,0,0,0,0,0c0.8,0.5,1,1.6,0.6,2.3c-0.5,0.8-1.6,1.1-2.4,0.6l-4.5-2.6
	c-0.4-0.2-0.8-0.1-1,0.3c-0.2,0.4-0.1,0.8,0.3,1l2.9,1.7c0,0,0,0,0,0c0.8,0.5,1.1,1.6,0.6,2.4c-0.2,0.4-0.6,0.7-1.1,0.8
	c-0.5,0.1-0.9,0.1-1.3-0.2L40,47.6c-0.4-0.2-0.8-0.1-1,0.3c-0.2,0.4-0.1,0.8,0.3,1l1.3,0.8c0,0,0,0,0,0c0.8,0.5,1.1,1.6,0.6,2.4
	c-0.2,0.4-0.6,0.7-1.1,0.8c-0.5,0.1-0.9,0.1-1.3-0.2L35.9,51l1.7-2.9c0.9-1.6,0.4-3.6-1.2-4.5c-0.6-0.4-1.3-0.5-2-0.4
	c0.1-0.5,0.1-1,0-1.5c-0.2-0.8-0.8-1.5-1.5-2c-0.8-0.4-1.6-0.5-2.5-0.3c-0.3,0.1-0.6,0.2-0.9,0.4c-0.2-0.7-0.7-1.4-1.4-1.8
	c-0.8-0.4-1.6-0.5-2.5-0.3c-0.6,0.2-1.1,0.5-1.5,0.9c-0.3-0.6-0.7-1.1-1.3-1.5c-1.6-0.9-3.6-0.4-4.5,1.2l-0.7,1.3
	c-1.1-1-2.2-2.7-2.7-4.1l6.5-11.3c1.4,0.7,4.3,1.8,8.4,2.4l-2.4,2.4c-0.4,0.4-0.6,1-0.6,1.6s0.4,1.1,0.9,1.5c2.2,1.4,4.4,1.4,6-0.2
	l2.1-2.1c1.2,1.4,3.6,3.8,8.1,4.1l9.1,5.3c0.4,0.2,0.7,0.6,0.8,1.1C53.8,40.9,53.7,41.4,53.5,41.8L53.5,41.8z M53.8,38.2
	c-0.1,0-0.1-0.1-0.2-0.1l-9.3-5.3c-0.1-0.1-0.2-0.1-0.3-0.1c-4.6-0.3-6.7-2.9-7.6-4.1l-0.1-0.2c-0.1-0.2-0.3-0.3-0.5-0.3
	c-0.2,0-0.4,0.1-0.6,0.2l-2.7,2.7c-1.5,1.5-3.3,0.5-4.1,0c-0.1-0.1-0.2-0.2-0.2-0.4s0-0.3,0.1-0.4l4.9-4.9c1.4-1.4,1.7-1.3,3.3-1.2
	l0,0c1.5,0.1,2.9,0.4,4.2,0.7c1.1,0.2,2.3,0.4,3.5,0.6c1.1,0.1,2.1,0,2.9-0.4l1.4-0.7L55.5,36C54.8,37,54.3,37.7,53.8,38.2
	L53.8,38.2z M64.4,34.2c-0.1,0.3-0.3,0.6-0.5,0.7l-4.4,2.6c-0.3,0.2-0.6,0.2-0.9,0.1c-0.3-0.1-0.6-0.3-0.7-0.5l-9-15.6
	c-0.2-0.3-0.2-0.6-0.1-0.9c0.1-0.3,0.3-0.6,0.5-0.7l4.4-2.6c0.6-0.3,1.3-0.1,1.6,0.4l9,15.6C64.4,33.6,64.5,33.9,64.4,34.2
	L64.4,34.2z"/>
</svg>
